<svg width="20" height="20" viewBox="0 0 20 20" fill="none" xmlns="http://www.w3.org/2000/svg">
<rect width="20" height="20" rx="3" fill="url(#paint0_linear_26_2)"/>
<circle cx="15.5" cy="12.5" r="1" stroke="black"/>
<circle cx="15.5" cy="12.5" r="1" stroke="white"/>
<line x1="15.5" y1="13" x2="15.5" y2="20" stroke="white"/>
<circle cx="4.5" cy="12.5" r="1" stroke="black"/>
<circle cx="4.5" cy="12.5" r="1" stroke="white"/>
<line x1="4.5" y1="13" x2="4.5" y2="20" stroke="white"/>
<path d="M10 10V16.5" stroke="white" stroke-width="3.03333" stroke-linejoin="round"/>
<path d="M10.8667 10.65C11.2257 10.65 11.5167 10.359 11.5167 10C11.5167 9.64101 11.2257 9.35 10.8667 9.35V10V10.65ZM7.4 10V10.65H10.8667V10V9.35H7.4V10Z" fill="white"/>
<path d="M9.13333 17.15C8.77435 17.15 8.48333 16.859 8.48333 16.5C8.48333 16.141 8.77435 15.85 9.13333 15.85V16.5V17.15ZM12.6 16.5V17.15H9.13333V16.5V15.85H12.6V16.5Z" fill="white"/>
<path d="M8.5 8.74996H9.72949H10.5H9.49999H8.5ZM11.2722 2.72953C10.8023 2.25907 10.173 2.00001 9.49999 2.00001C9.17147 1.99922 8.84603 2.06335 8.54236 2.18871C8.2387 2.31407 7.96279 2.49819 7.73049 2.73049C7.49819 2.96279 7.31407 3.2387 7.18871 3.54236C7.06335 3.84603 6.99922 4.17147 7.00001 4.49999C7.00001 5.22842 7.27922 5.90982 7.76563 6.36935L7.83375 6.43325C8.11515 6.69638 8.5 7.05684 8.5 7.37497V7.99996H9.24999V5.95482L8.55812 5.56248L8.84374 5.15186L9.49999 5.49998L10.1451 5.15014L10.4436 5.55139L9.74999 5.95763V7.99996H10.5V7.37497C10.5 7.06434 10.8806 6.70419 11.1586 6.44107L11.2353 6.36825C11.7356 5.8906 12 5.24389 12 4.49999C12.0016 4.17143 11.9382 3.84581 11.8132 3.54193C11.6883 3.23805 11.5044 2.96193 11.2722 2.72953Z" fill="white"/>
<defs>
<linearGradient id="paint0_linear_26_2" x1="-16.5" y1="-19.5" x2="20" y2="21" gradientUnits="userSpaceOnUse">
<stop stop-color="#539DF3" stop-opacity="0.79"/>
<stop offset="0.70188" stop-color="#2139E6"/>
<stop offset="1" stop-color="#3E0096"/>
</linearGradient>
</defs>
</svg>
